<svg width="23" height="22" viewBox="0 0 23 22" fill="none" xmlns="http://www.w3.org/2000/svg">
<path d="M10.7637 0.963231C10.9118 0.499255 11.5683 0.499255 11.7163 0.963231L13.9309 7.90227C13.997 8.10955 14.1896 8.25025 14.4072 8.25025H21.5925C22.0746 8.25025 22.2775 8.86548 21.8898 9.15223L16.0615 13.4634C15.8894 13.5907 15.8174 13.8135 15.8825 14.0174L18.1051 20.9815C18.2526 21.4438 17.7215 21.8241 17.3314 21.5355L11.5374 17.2497C11.3607 17.119 11.1194 17.119 10.9427 17.2497L5.14864 21.5355C4.75855 21.8241 4.22745 21.4438 4.37497 20.9815L6.59753 14.0174C6.66262 13.8135 6.59065 13.5907 6.41854 13.4634L0.590222 9.15223C0.202563 8.86548 0.405378 8.25025 0.887565 8.25025H8.0728C8.29038 8.25025 8.48298 8.10955 8.54913 7.90227L10.7637 0.963231Z" fill="#FFD600"/>
</svg>
